<?xml version="1.0" encoding="UTF-8"?>
<svg xmlns="http://www.w3.org/2000/svg" viewBox="0 0 1260 480" width="1260" height="480">
  <style>
    text { font-family: "JetBrains Mono", "Menlo", "Monaco", "Consolas", monospace; }
  </style>
  <defs>
    <marker id="arr-red" markerWidth="10" markerHeight="8" refX="9" refY="4" orient="auto">
      <polyline points="0 0,9 4,0 8" fill="none" stroke="#fb7185" stroke-width="1.5"/>
    </marker>
    <pattern id="grid" width="40" height="40" patternUnits="userSpaceOnUse">
      <path d="M 40 0 L 0 0 0 40" fill="none" stroke="#0f172a" stroke-width="0.8"/>
    </pattern>
    <pattern id="danger-hatch" width="12" height="12" patternUnits="userSpaceOnUse" patternTransform="rotate(45)">
      <line x1="0" y1="0" x2="0" y2="12" stroke="rgba(251,113,133,0.13)" stroke-width="5"/>
    </pattern>
  </defs>
  <rect width="100%" height="100%" fill="#020617"/>
  <rect width="100%" height="100%" fill="url(#grid)"/>
  <rect x="0" y="0" width="290" height="480" fill="rgba(127,29,29,0.07)"/>
  <text x="22" y="24" fill="#fb7185" font-size="15" font-weight="600">互联网</text>
  <rect x="350" y="18" width="890" height="408" rx="14" fill="rgba(120,53,15,0.03)" stroke="#fbbf24" stroke-width="1.5"/>
  <text x="368" y="37" fill="#fbbf24" font-size="15" font-weight="600">企业内网（默认受信任区域）</text>
  <rect x="368" y="48" width="300" height="366" rx="10" fill="rgba(8,51,68,0.2)" stroke="#22d3ee" stroke-width="1.5" stroke-dasharray="6,3"/>
  <text x="386" y="66" fill="#22d3ee" font-size="14" font-weight="600">员工办公网</text>
  <rect x="728" y="48" width="500" height="296" rx="10" fill="url(#danger-hatch)"/>
  <rect x="728" y="48" width="500" height="296" rx="10" fill="rgba(127,29,29,0.10)" stroke="#fb7185" stroke-width="2" stroke-dasharray="6,3"/>
  <text x="746" y="66" fill="#fb7185" font-size="14" font-weight="600">IDC 数据中心  ⚠ 全面沦陷</text>
  <path d="M 188,99 L 290,99" fill="none" stroke="#fb7185" stroke-width="2" stroke-dasharray="6,3"/>
  <path d="M 326,99 L 384,99" fill="none" stroke="#fb7185" stroke-width="2" stroke-dasharray="6,3" marker-end="url(#arr-red)"/>
  <path d="M 522,99  Q 624,99  728,101" fill="none" stroke="#fb7185" stroke-width="1.8" marker-end="url(#arr-red)"/>
  <path d="M 522,101 Q 624,145 728,172" fill="none" stroke="#fb7185" stroke-width="1.8" marker-end="url(#arr-red)"/>
  <path d="M 522,103 Q 624,207 728,246" fill="none" stroke="#fb7185" stroke-width="1.8" marker-end="url(#arr-red)"/>
  <path d="M 522,105 Q 624,268 728,316" fill="none" stroke="#fb7185" stroke-width="1.8" marker-end="url(#arr-red)"/>
  <rect x="290" y="34" width="36" height="390" rx="6" fill="#0f172a"/>
  <rect x="290" y="34" width="36" height="390" rx="6" fill="rgba(120,53,15,0.55)" stroke="#f97316" stroke-width="2"/>
  <text x="308" y="248" fill="#f97316" font-size="13" font-weight="700" text-anchor="middle" transform="rotate(-90,308,248)">防   火   墙</text>
  <circle cx="308" cy="50"  r="4" fill="#f97316" opacity="0.9"/>
  <circle cx="308" cy="65"  r="4" fill="#34d399" opacity="0.9"/>
  <circle cx="308" cy="80"  r="4" fill="#34d399" opacity="0.9"/>
  <circle cx="308" cy="99"  r="11" fill="rgba(136,19,55,0.85)" stroke="#fb7185" stroke-width="1.5"/>
  <text x="308" y="104" fill="#fb7185" font-size="13" font-weight="700" text-anchor="middle">!</text>
  <rect x="24" y="74" width="164" height="52" rx="8" fill="#0f172a"/>
  <rect x="24" y="74" width="164" height="52" rx="8" fill="rgba(136,19,55,0.55)" stroke="#fb7185" stroke-width="2"/>
  <text x="106" y="97"  fill="white"   font-size="15" font-weight="700" text-anchor="middle">&#x1F9B9; 黑 客</text>
  <text x="106" y="116" fill="#fb7185" font-size="11" text-anchor="middle">APT / 社会工程学</text>
  <rect x="386" y="76" width="134" height="54" rx="6" fill="#0f172a"/>
  <rect x="386" y="76" width="134" height="54" rx="6" fill="rgba(136,19,55,0.45)" stroke="#fb7185" stroke-width="2"/>
  <text x="453" y="100" fill="white"   font-size="13" font-weight="700" text-anchor="middle">&#x1F4BB; 员工A</text>
  <text x="453" y="119" fill="#fb7185" font-size="11" text-anchor="middle">&#x2726; 钓鱼攻陷</text>
  <circle cx="520" cy="76" r="12" fill="#dc2626" stroke="#fb7185" stroke-width="1"/>
  <text x="520" y="81"  fill="white"   font-size="14" text-anchor="middle">&#x2620;</text>
  <rect x="386" y="150" width="134" height="54" rx="6" fill="#0f172a"/>
  <rect x="386" y="150" width="134" height="54" rx="6" fill="rgba(8,51,68,0.4)" stroke="#22d3ee" stroke-width="1.5"/>
  <text x="453" y="174" fill="white"   font-size="13" font-weight="700" text-anchor="middle">&#x1F4BB; 员工B</text>
  <text x="453" y="193" fill="#94a3b8" font-size="11" text-anchor="middle">正常办公</text>
  <rect x="386" y="224" width="134" height="54" rx="6" fill="#0f172a"/>
  <rect x="386" y="224" width="134" height="54" rx="6" fill="rgba(8,51,68,0.4)" stroke="#22d3ee" stroke-width="1.5"/>
  <text x="453" y="248" fill="white"   font-size="13" font-weight="700" text-anchor="middle">&#x1F4BB; 员工C</text>
  <text x="453" y="267" fill="#94a3b8" font-size="11" text-anchor="middle">正常办公</text>
  <rect x="386" y="298" width="134" height="54" rx="6" fill="#0f172a"/>
  <rect x="386" y="298" width="134" height="54" rx="6" fill="rgba(8,51,68,0.4)" stroke="#22d3ee" stroke-width="1.5"/>
  <text x="453" y="322" fill="white"   font-size="13" font-weight="700" text-anchor="middle">&#x1F4BB; 员工D</text>
  <text x="453" y="341" fill="#94a3b8" font-size="11" text-anchor="middle">正常办公</text>
  <rect x="378" y="368" width="278" height="38" rx="8" fill="#0f172a"/>
  <rect x="378" y="368" width="278" height="38" rx="8" fill="rgba(127,29,29,0.35)" stroke="#fb7185" stroke-width="1.2"/>
  <text x="517" y="384" fill="#fb7185" font-size="13" font-weight="700" text-anchor="middle">⚠ 城墙之内，默认可信</text>
  <text x="517" y="399" fill="#94a3b8" font-size="12" text-anchor="middle">边界模型核心缺陷</text>
  <rect x="746" y="74"  width="464" height="54" rx="6" fill="#0f172a"/>
  <rect x="746" y="74"  width="464" height="54" rx="6" fill="rgba(136,19,55,0.35)" stroke="#fb7185" stroke-width="1.5"/>
  <text x="978" y="99"  fill="white"   font-size="14" font-weight="700" text-anchor="middle">企业应用服务</text>
  <text x="978" y="118" fill="#fb7185" font-size="11" text-anchor="middle">OA · ERP · CRM · 内部系统</text>
  <text x="1203" y="104" fill="#dc2626" font-size="18" text-anchor="end">&#x2620;</text>
  <rect x="746" y="148" width="464" height="54" rx="6" fill="#0f172a"/>
  <rect x="746" y="148" width="464" height="54" rx="6" fill="rgba(136,19,55,0.35)" stroke="#fb7185" stroke-width="1.5"/>
  <text x="978" y="173" fill="white"   font-size="14" font-weight="700" text-anchor="middle">核心数据库</text>
  <text x="978" y="192" fill="#fb7185" font-size="11" text-anchor="middle">用户数据 · 订单 · 财务 · 账号</text>
  <text x="1203" y="178" fill="#dc2626" font-size="18" text-anchor="end">&#x2620;</text>
  <rect x="746" y="222" width="464" height="54" rx="6" fill="#0f172a"/>
  <rect x="746" y="222" width="464" height="54" rx="6" fill="rgba(136,19,55,0.35)" stroke="#fb7185" stroke-width="1.5"/>
  <text x="978" y="247" fill="white"   font-size="14" font-weight="700" text-anchor="middle">敏感数据资产</text>
  <text x="978" y="266" fill="#fb7185" font-size="11" text-anchor="middle">研发代码 · 商业机密 · 合同文档</text>
  <text x="1203" y="252" fill="#dc2626" font-size="18" text-anchor="end">&#x2620;</text>
  <rect x="746" y="296" width="464" height="54" rx="6" fill="#0f172a"/>
  <rect x="746" y="296" width="464" height="54" rx="6" fill="rgba(136,19,55,0.35)" stroke="#fb7185" stroke-width="1.5"/>
  <text x="978" y="321" fill="white"   font-size="14" font-weight="700" text-anchor="middle">核心基础设施</text>
  <text x="978" y="340" fill="#fb7185" font-size="11" text-anchor="middle">K8s · AD 域控 · DNS · 内网服务器</text>
  <text x="1203" y="326" fill="#dc2626" font-size="18" text-anchor="end">&#x2620;</text>
  <text x="239" y="88"  fill="#fb7185" font-size="12" font-weight="600" text-anchor="middle">① 钓鱼邮件</text>
  <text x="308" y="122" fill="#fbbf24" font-size="11" text-anchor="middle">绕过</text>
  <text x="453" y="146" fill="#fb7185" font-size="12" font-weight="600" text-anchor="middle">② 据点建立</text>
  <text x="624" y="80"  fill="#fb7185" font-size="12" font-weight="700" text-anchor="middle">③ 内网横向移动</text>
  <text x="624" y="96"  fill="#94a3b8" font-size="11" text-anchor="middle">无认证 · 无隔离 · 畅通无阻</text>
  <line x1="700" y1="80" x2="700" y2="360" stroke="#1e293b" stroke-width="1" stroke-dasharray="3,3"/>
  <text x="700" y="226" fill="#334155" font-size="9" text-anchor="middle" transform="rotate(-90,700,226)">无内部隔离</text>
  <text x="22" y="444" fill="white" font-size="11" font-weight="600">攻击路径：</text>
  <path d="M 100,440 L 132,440" fill="none" stroke="#fb7185" stroke-width="1.5" stroke-dasharray="5,3" marker-end="url(#arr-red)"/>
  <text x="140" y="444" fill="#94a3b8" font-size="10">钓鱼渗透</text>
  <path d="M 320,440 L 352,440" fill="none" stroke="#fb7185" stroke-width="1.5" marker-end="url(#arr-red)"/>
  <text x="360" y="444" fill="#94a3b8" font-size="10">横向移动（内网信任）</text>
  <text x="548" y="444" fill="#dc2626" font-size="10">&#x2620; 沦陷资产</text>
  <text x="640" y="444" fill="#f97316" font-size="10">- 防火墙</text>
  <text x="712" y="444" fill="#fbbf24" font-size="10">- 内网边界</text>
</svg>